<svg width="38" height="38" viewBox="0 0 38 38" fill="none" xmlns="http://www.w3.org/2000/svg">
<ellipse cx="19" cy="33.5" rx="8" ry="3.5" fill="#9E9E9E" fill-opacity="0.4"/>
<path d="M19 1.5C25.564 1.5 31.5 6.5275 31.5 14.335C31.5 16.7915 30.5539 19.5102 28.5996 22.5039C26.6465 25.4957 23.7044 28.7337 19.7607 32.2197C19.3314 32.5929 18.6853 32.5929 18.2559 32.2197H18.2549C14.3032 28.7338 11.3574 25.4956 9.40234 22.5039C7.4461 19.5103 6.5 16.7914 6.5 14.335C6.50003 6.5275 12.436 1.5 19 1.5ZM19 10.2578C16.936 10.2578 15.25 11.9451 15.25 14.0098C15.25 16.0744 16.936 17.7627 19 17.7627C21.064 17.7627 22.75 16.0744 22.75 14.0098C22.75 11.9451 21.064 10.2578 19 10.2578Z" fill="#174193" stroke="#1E3A8D"/>
<circle cx="19" cy="14" r="5" fill="#174193"/>
<path d="M18.9999 18.741L15.2767 20.9336C15.1673 20.9863 15.0657 21.0076 14.972 20.9976C14.879 20.9869 14.7884 20.9556 14.7002 20.9036C14.6113 20.8502 14.5443 20.7749 14.4992 20.6775C14.4541 20.5802 14.45 20.4738 14.4869 20.3584L15.4777 16.2473L12.2006 13.4765C12.1083 13.4032 12.0475 13.3155 12.0181 13.2134C11.9887 13.1114 11.9952 13.0137 12.0375 12.9204C12.0799 12.827 12.1364 12.7503 12.2068 12.6903C12.2779 12.6323 12.3736 12.5929 12.494 12.5723L16.8183 12.2042L18.5045 8.31109C18.551 8.20106 18.618 8.1217 18.7055 8.07302C18.7931 8.02434 18.8912 8 18.9999 8C19.1086 8 19.2071 8.02434 19.2953 8.07302C19.3835 8.1217 19.4502 8.20106 19.4953 8.31109L21.1815 12.2042L25.5048 12.5723C25.6259 12.5923 25.7219 12.632 25.793 12.6913C25.8642 12.75 25.9209 12.8263 25.9633 12.9204C26.005 13.0137 26.0112 13.1114 25.9818 13.2134C25.9524 13.3155 25.8915 13.4032 25.7992 13.4765L22.5221 16.2473L23.5129 20.3584C23.5512 20.4725 23.5475 20.5785 23.5017 20.6765C23.4558 20.7745 23.3885 20.8499 23.2996 20.9026C23.2121 20.9559 23.1215 20.9876 23.0278 20.9976C22.9348 21.0076 22.8336 20.9863 22.7242 20.9336L18.9999 18.741Z" fill="white"/>
</svg>
