<svg width="24" height="24" viewBox="0 0 24 24" fill="none" xmlns="http://www.w3.org/2000/svg">
<path d="M9.34689 12.0056L15.677 18.2071C15.8923 18.418 15.9966 18.6641 15.9897 18.9453C15.9828 19.2266 15.8714 19.4727 15.6555 19.6836C15.4396 19.8945 15.1884 20 14.9019 20C14.6154 20 14.3642 19.8945 14.1483 19.6836L7.51675 13.208C7.3445 13.0392 7.21531 12.8494 7.12919 12.6384C7.04306 12.4275 7 12.2166 7 12.0056C7 11.7947 7.04306 11.5838 7.12919 11.3728C7.21531 11.1619 7.3445 10.9721 7.51675 10.8033L14.1483 4.30659C14.3636 4.09566 14.6186 3.99356 14.9131 4.00031C15.2077 4.00706 15.4623 4.11619 15.677 4.32768C15.8918 4.53918 15.9994 4.78527 16 5.06595C16.0006 5.34663 15.8929 5.59272 15.677 5.80421L9.34689 12.0056Z" fill="black"/>
</svg>
