<svg width="24" height="24" viewBox="0 0 24 24" fill="none" xmlns="http://www.w3.org/2000/svg">
<circle cx="12" cy="12" r="10" fill="currentColor"/>
<path fill-rule="evenodd" clip-rule="evenodd" d="M16.8457 8.17648C16.9445 8.28952 17 8.44281 17 8.60264C17 8.76247 16.9445 8.91576 16.8457 9.02879L10.9194 15.8057C10.8656 15.8673 10.8016 15.9162 10.7313 15.9495C10.6609 15.9828 10.5855 16 10.5093 16C10.4331 16 10.3577 15.9828 10.2873 15.9495C10.2169 15.9162 10.153 15.8673 10.0992 15.8057L7.15449 12.4386C7.10551 12.3826 7.06666 12.3162 7.04015 12.243C7.01364 12.1698 7 12.0914 7 12.0122C7 11.933 7.01364 11.8546 7.04015 11.7814C7.06666 11.7082 7.10551 11.6417 7.15449 11.5857C7.20346 11.5297 7.26161 11.4853 7.3256 11.455C7.38959 11.4247 7.45818 11.4091 7.52745 11.4091C7.59671 11.4091 7.6653 11.4247 7.72929 11.455C7.79328 11.4853 7.85143 11.5297 7.90041 11.5857L10.5098 14.5694L16.0997 8.17648C16.1986 8.06348 16.3327 8 16.4724 8C16.6122 8 16.7468 8.06348 16.8457 8.17648Z" fill="white"/>
</svg>
